<svg xmlns="http://www.w3.org/2000/svg" xmlns:xlink="http://www.w3.org/1999/xlink" viewBox="-2 0 144 225"><text y="75" fill-opacity="0" font-family="Trebuchet" font-size="83" letter-spacing="-12">W3C</text><text x="180" y="75" fill-opacity="0" font-family="Trebuchet" font-size="83" font-weight="bold">SVG</text><g image-rendering="optimizeQuality" shape-rendering="geometricPrecision" text-rendering="geometricPrecision"><path fill="#005A9C" d="m33.695 10.802 12.062 41.016 12.067-41.016h8.731L46.587 78.188h-.831l-12.48-41.759-12.479 41.759h-.832L0 10.802h8.736l12.061 41.016L28.951 24.2l-3.993-13.397h8.737z"/><path fill="#005A9C" d="M91.355 56.557c0 6.104-1.624 11.234-4.862 15.394-3.248 4.158-7.45 6.237-12.607 6.237-3.882 0-7.263-1.238-10.148-3.702-2.885-2.47-5.02-5.812-6.406-10.022l6.82-2.829c1.001 2.552 2.317 4.562 3.953 6.028 1.636 1.469 3.56 2.207 5.781 2.207 2.329 0 4.3-1.306 5.909-3.911 1.609-2.606 2.411-5.738 2.411-9.401 0-4.049-.861-7.179-2.582-9.399-1.995-2.604-5.129-3.912-9.397-3.912H66.9v-3.991l11.646-20.133H64.484l-3.911 6.655H58.08V10.802h32.441v4.075l-12.31 21.217c4.324 1.385 7.596 3.911 9.815 7.571 2.22 3.659 3.329 7.953 3.329 12.892z"/><path fill="#221B0A" d="m125.211 10.425 1.414 8.6-5.008 9.583s-1.924-4.064-5.117-6.314c-2.693-1.899-4.447-2.309-7.186-1.746-3.527.73-7.516 4.938-9.258 10.13-2.084 6.21-2.104 9.218-2.178 11.978-.115 4.428.58 7.043.58 7.043s-3.04-5.626-3.011-13.866c.018-5.882.947-11.218 3.666-16.479 2.396-4.627 5.95-7.404 9.109-7.728 3.264-.343 5.848 1.229 7.841 2.938 2.089 1.788 4.213 5.698 4.213 5.698l4.935-9.837zM125.823 59.099s-2.208 3.957-3.589 5.48c-1.379 1.524-3.849 4.209-6.896 5.555-3.049 1.343-4.646 1.598-7.661 1.306-3.01-.29-5.807-2.032-6.786-2.764-.979-.722-3.486-2.864-4.897-4.854-1.42-2-3.634-5.995-3.634-5.995s1.233 4.001 2.007 5.699c.442.977 1.81 3.965 3.749 6.572 1.805 2.425 5.315 6.604 10.652 7.545 5.336.945 9.002-1.449 9.907-2.031.907-.578 2.819-2.178 4.032-3.475 1.264-1.351 2.459-3.079 3.116-4.108.487-.758 1.276-2.286 1.276-2.286l-1.276-6.644z"/><path fill="#221B0A" d="M132.592 5.201c2.493 0 4.485 2.032 4.485 4.525 0 2.533-1.992 4.543-4.505 4.543a4.523 4.523 0 0 1-4.524-4.543 4.533 4.533 0 0 1 4.524-4.525h.02zm-.038.906c-1.889 0-3.417 1.629-3.417 3.639 0 2.029 1.528 3.619 3.436 3.619 1.912.019 3.46-1.59 3.46-3.619 0-2.01-1.548-3.639-3.46-3.639h-.019zm-.763 6.254h-1.067V7.332c.401-.058.846-.141 1.61-.141.862 0 1.387.141 1.726.404.28.221.445.563.445 1.085 0 .603-.423 1.024-.966 1.166v.042c.441.078.724.479.801 1.226.103.783.203 1.085.284 1.247h-1.104c-.123-.183-.203-.625-.305-1.31-.077-.542-.4-.763-.942-.763h-.481v2.073zm0-2.898h.5c.624 0 1.105-.199 1.105-.723 0-.421-.301-.744-1.025-.744-.261 0-.441 0-.58.021v1.446z"/><g transform="matrix(.5 0 0 .5 -5 77.5)"><defs><g id="d" fill="#fff"><path d="M50.964 220.638c-6.638-6.636-10.746-15.8-10.746-25.922 0-20.252 16.426-36.668 36.668-36.668 20.252 0 36.678 16.416 36.678 36.668h-21.48c0-8.388-6.808-15.186-15.198-15.186-8.388 0-15.186 6.798-15.186 15.186 0 4.19 1.702 7.986 4.44 10.726h.01c2.75 2.76 5.04 3.558 10.736 4.462 10.132 1.054 19.296 4.108 25.932 10.744 6.638 6.638 10.746 15.802 10.746 25.924 0 20.252-16.426 36.678-36.678 36.678-20.242 0-36.668-16.426-36.668-36.678H61.7c0 8.388 6.798 15.196 15.186 15.196 8.39 0 15.198-6.808 15.198-15.196 0-4.19-1.702-7.976-4.442-10.726h-.01c-2.75-2.75-6.696-3.698-10.746-4.452v-.01c-9.82-1.506-19.286-4.108-25.922-10.746ZM186.904 158.048l-25.94 125.202h-21.48l-25.92-125.202h21.48l15.2 73.326 15.18-73.326h21.48ZM223.584 209.904h36.668v36.668h.01c0 20.254-16.426 36.68-36.678 36.68-20.254 0-36.668-16.426-36.668-36.68v-51.854h-.01c0-20.252 16.424-36.668 36.678-36.668 20.242 0 36.668 16.416 36.668 36.668H238.77c0-8.38-6.808-15.188-15.186-15.188-8.39 0-15.188 6.808-15.188 15.188v51.854c0 8.39 6.798 15.188 15.188 15.188 8.378 0 15.176-6.798 15.186-15.178v-15.186h-15.186v-21.492Z"/></g></defs><path id="c" fill="#000" d="M8.5 150h283v100c0 23.5-18 41.5-41.5 41.5H50c-23.5 0-41.5-18-41.5-41.5Z"/><g stroke="#000" stroke-width="38.009"><g id="b" transform="translate(150 150)"><path id="a" fill="#ffb13b" d="M-84.149-15.851a22.417 22.417 0 1 0 0 31.702H84.15a22.417 22.417 0 1 0 0-31.702Z"/><use xlink:href="#a" transform="rotate(45)"/><use xlink:href="#a" transform="rotate(90)"/><use xlink:href="#a" transform="rotate(135)"/></g></g><use xlink:href="#b"/><use xlink:href="#c" opacity=".85"/><use xlink:href="#d"/></g></g></svg>